<svg xmlns="http://www.w3.org/2000/svg" width="1440" height="900"><path d="M804,387L964,485L1000,425Z" fill="#e255a2" stroke="#e255a2" stroke-width="1.51"/><path d="M1000,425L921,216L804,387Z" fill="#dd64a8" stroke="#dd64a8" stroke-width="1.51"/><path d="M964,485L1029,622L1000,425Z" fill="#e44194" stroke="#e44194" stroke-width="1.51"/><path d="M736,628L1029,622L964,485Z" fill="#e64095" stroke="#e64095" stroke-width="1.51"/><path d="M804,387L736,628L964,485Z" fill="#e354a2" stroke="#e354a2" stroke-width="1.51"/><path d="M1000,425L1177,312L921,216Z" fill="#dc609f" stroke="#dc609f" stroke-width="1.51"/><path d="M1293,448L1177,312L1000,425Z" fill="#da508d" stroke="#da508d" stroke-width="1.51"/><path d="M921,216L662,198L804,387Z" fill="#d878b5" stroke="#d878b5" stroke-width="1.51"/><path d="M804,387L509,610L736,628Z" fill="#e05ea8" stroke="#e05ea8" stroke-width="1.51"/><path d="M921,216L934,50L662,198Z" fill="#dc80b8" stroke="#dc80b8" stroke-width="1.51"/><path d="M1068,88L934,50L921,216Z" fill="#e27aaf" stroke="#e27aaf" stroke-width="1.51"/><path d="M1177,312L1068,88L921,216Z" fill="#db6da2" stroke="#db6da2" stroke-width="1.51"/><path d="M736,628L948,822L1029,622Z" fill="#e33288" stroke="#e33288" stroke-width="1.51"/><path d="M509,610L691,699L736,628Z" fill="#e1559f" stroke="#e1559f" stroke-width="1.51"/><path d="M662,198L544,290L804,387Z" fill="#d47fbb" stroke="#d47fbb" stroke-width="1.51"/><path d="M1254,592L1293,448L1000,425Z" fill="#db3f83" stroke="#db3f83" stroke-width="1.51"/><path d="M1177,312L1328,137L1068,88Z" fill="#d66c95" stroke="#d66c95" stroke-width="1.51"/><path d="M1226,706L1254,592L1029,622Z" fill="#de2176" stroke="#de2176" stroke-width="1.51"/><path d="M1029,622L1254,592L1000,425Z" fill="#e03887" stroke="#e03887" stroke-width="1.51"/><path d="M691,699L948,822L736,628Z" fill="#e0408c" stroke="#e0408c" stroke-width="1.51"/><path d="M1178,782L1226,706L1029,622Z" fill="#db1e6f" stroke="#db1e6f" stroke-width="1.51"/><path d="M1480,551L1457,441L1293,448Z" fill="#c63a78" stroke="#c63a78" stroke-width="1.51"/><path d="M544,290L509,610L804,387Z" fill="#da72b6" stroke="#da72b6" stroke-width="1.51"/><path d="M723,-93L584,76L662,198Z" fill="#da98c9" stroke="#da98c9" stroke-width="1.51"/><path d="M1068,88L1002,-26L934,50Z" fill="#e581b0" stroke="#e581b0" stroke-width="1.51"/><path d="M1296,5L1002,-26L1068,88Z" fill="#e07fa4" stroke="#e07fa4" stroke-width="1.51"/><path d="M662,198L584,76L544,290Z" fill="#d390c5" stroke="#d390c5" stroke-width="1.51"/><path d="M723,-93L662,198L934,50Z" fill="#df90c2" stroke="#df90c2" stroke-width="1.51"/><path d="M1037,859L1178,782L1029,622Z" fill="#db1e6f" stroke="#db1e6f" stroke-width="1.51"/><path d="M948,822L1037,859L1029,622Z" fill="#dd2174" stroke="#dd2174" stroke-width="1.51"/><path d="M544,290L430,364L509,610Z" fill="#d57fbb" stroke="#d57fbb" stroke-width="1.51"/><path d="M406,200L430,364L544,290Z" fill="#cb92c5" stroke="#cb92c5" stroke-width="1.51"/><path d="M1293,448L1328,137L1177,312Z" fill="#cf5b89" stroke="#cf5b89" stroke-width="1.51"/><path d="M948,822L865,915L1037,859Z" fill="#d4226f" stroke="#d4226f" stroke-width="1.51"/><path d="M691,699L865,915L948,822Z" fill="#db377b" stroke="#db377b" stroke-width="1.51"/><path d="M755,943L865,915L691,699Z" fill="#d53d7c" stroke="#d53d7c" stroke-width="1.51"/><path d="M1002,-26L723,-93L934,50Z" fill="#e790bd" stroke="#e790bd" stroke-width="1.51"/><path d="M509,610L534,793L691,699Z" fill="#dc5a9a" stroke="#dc5a9a" stroke-width="1.51"/><path d="M519,858L534,793L266,756Z" fill="#d36491" stroke="#d36491" stroke-width="1.51"/><path d="M515,-35L406,200L584,76Z" fill="#d1a3ce" stroke="#d1a3ce" stroke-width="1.51"/><path d="M584,76L406,200L544,290Z" fill="#ce98c9" stroke="#ce98c9" stroke-width="1.51"/><path d="M534,793L755,943L691,699Z" fill="#d84c86" stroke="#d84c86" stroke-width="1.51"/><path d="M1293,448L1457,441L1328,137Z" fill="#c75283" stroke="#c75283" stroke-width="1.51"/><path d="M1480,551L1293,448L1254,592Z" fill="#ce3375" stroke="#ce3375" stroke-width="1.51"/><path d="M1480,551L1254,592L1508,703Z" fill="#c71f6b" stroke="#c71f6b" stroke-width="1.51"/><path d="M1328,137L1296,5L1068,88Z" fill="#d97696" stroke="#d97696" stroke-width="1.51"/><path d="M1002,-26L986,-211L723,-93Z" fill="#ec98c1" stroke="#ec98c1" stroke-width="1.51"/><path d="M1407,95L1296,5L1328,137Z" fill="#cd7191" stroke="#cd7191" stroke-width="1.51"/><path d="M723,-93L515,-35L584,76Z" fill="#dca5cf" stroke="#dca5cf" stroke-width="1.51"/><path d="M534,793L519,858L755,943Z" fill="#cf5084" stroke="#cf5084" stroke-width="1.51"/><path d="M305,632L534,793L509,610Z" fill="#da69a2" stroke="#da69a2" stroke-width="1.51"/><path d="M1457,441L1407,95L1328,137Z" fill="#c16088" stroke="#c16088" stroke-width="1.51"/><path d="M1457,441L1582,389L1407,95Z" fill="#b85280" stroke="#b85280" stroke-width="1.51"/><path d="M1508,703L1254,592L1226,706Z" fill="#cf1a68" stroke="#cf1a68" stroke-width="1.51"/><path d="M1182,-224L986,-211L1002,-26Z" fill="#ee92b3" stroke="#ee92b3" stroke-width="1.51"/><path d="M723,-93L559,-221L515,-35Z" fill="#e0b0d5" stroke="#e0b0d5" stroke-width="1.51"/><path d="M430,364L305,632L509,610Z" fill="#d978b4" stroke="#d978b4" stroke-width="1.51"/><path d="M217,552L305,632L430,364Z" fill="#dc82ba" stroke="#dc82ba" stroke-width="1.51"/><path d="M986,-211L720,-209L723,-93Z" fill="#eca2ca" stroke="#eca2ca" stroke-width="1.51"/><path d="M1178,782L1253,953L1226,706Z" fill="#d01459" stroke="#d01459" stroke-width="1.51"/><path d="M1037,859L1253,953L1178,782Z" fill="#cc145c" stroke="#cc145c" stroke-width="1.51"/><path d="M1292,1066L1253,953L1039,1184Z" fill="#ad0a4b" stroke="#ad0a4b" stroke-width="1.51"/><path d="M1253,953L1037,859L1039,1184Z" fill="#bb1059" stroke="#bb1059" stroke-width="1.51"/><path d="M1480,551L1582,389L1457,441Z" fill="#bb3975" stroke="#bb3975" stroke-width="1.51"/><path d="M1475,849L1508,703L1226,706Z" fill="#c1115a" stroke="#c1115a" stroke-width="1.51"/><path d="M1609,634L1582,389L1480,551Z" fill="#b72f6b" stroke="#b72f6b" stroke-width="1.51"/><path d="M1296,5L1182,-224L1002,-26Z" fill="#e68aa6" stroke="#e68aa6" stroke-width="1.51"/><path d="M1332,-282L559,-221L720,-209Z" fill="#f1a1c7" stroke="#f1a1c7" stroke-width="1.51"/><path d="M1332,-282L1182,-224L1296,5Z" fill="#e38b9e" stroke="#e38b9e" stroke-width="1.51"/><path d="M305,632L266,756L534,793Z" fill="#d96d9e" stroke="#d96d9e" stroke-width="1.51"/><path d="M177,402L217,552L430,364Z" fill="#d98dc3" stroke="#d98dc3" stroke-width="1.51"/><path d="M212,212L430,364L406,200Z" fill="#cc9dcb" stroke="#cc9dcb" stroke-width="1.51"/><path d="M515,-35L317,-78L406,200Z" fill="#d2afd5" stroke="#d2afd5" stroke-width="1.51"/><path d="M559,-221L431,-130L515,-35Z" fill="#dbb8d9" stroke="#dbb8d9" stroke-width="1.51"/><path d="M720,-209L559,-221L723,-93Z" fill="#e6add3" stroke="#e6add3" stroke-width="1.51"/><path d="M1332,-282L720,-209L986,-211Z" fill="#f298bb" stroke="#f298bb" stroke-width="1.51"/><path d="M317,-78L212,212L406,200Z" fill="#d1aed4" stroke="#d1aed4" stroke-width="1.51"/><path d="M1253,953L1475,849L1226,706Z" fill="#c30f52" stroke="#c30f52" stroke-width="1.51"/><path d="M1508,703L1609,634L1480,551Z" fill="#bb1863" stroke="#bb1863" stroke-width="1.51"/><path d="M212,212L177,402L430,364Z" fill="#d29aca" stroke="#d29aca" stroke-width="1.51"/><path d="M222,707L266,756L305,632Z" fill="#de77a6" stroke="#de77a6" stroke-width="1.51"/><path d="M222,707L305,632L217,552Z" fill="#e27bb0" stroke="#e27bb0" stroke-width="1.51"/><path d="M1672,730L1609,634L1508,703Z" fill="#b11156" stroke="#b11156" stroke-width="1.51"/><path d="M26,519L222,707L217,552Z" fill="#e487b8" stroke="#e487b8" stroke-width="1.51"/><path d="M431,-130L317,-78L515,-35Z" fill="#d8badb" stroke="#d8badb" stroke-width="1.51"/><path d="M86,-38L317,-78L143,-200Z" fill="#decee5" stroke="#decee5" stroke-width="1.51"/><path d="M755,943L871,1192L865,915Z" fill="#bd2f6f" stroke="#bd2f6f" stroke-width="1.51"/><path d="M519,858L590,1100L755,943Z" fill="#c14a7e" stroke="#c14a7e" stroke-width="1.51"/><path d="M437,1031L590,1100L519,858Z" fill="#b95381" stroke="#b95381" stroke-width="1.51"/><path d="M1407,95L1546,-4L1296,5Z" fill="#c87390" stroke="#c87390" stroke-width="1.51"/><path d="M1725,156L1546,-4L1407,95Z" fill="#b56884" stroke="#b56884" stroke-width="1.51"/><path d="M1565,-90L1546,-4L1660,-151Z" fill="#bb788b" stroke="#bb788b" stroke-width="1.51"/><path d="M1039,1184L1037,859L865,915Z" fill="#c31767" stroke="#c31767" stroke-width="1.51"/><path d="M1253,953L1292,1066L1475,849Z" fill="#b0074b" stroke="#b0074b" stroke-width="1.51"/><path d="M88,855L346,935L266,756Z" fill="#d47293" stroke="#d47293" stroke-width="1.51"/><path d="M266,756L346,935L519,858Z" fill="#d0678d" stroke="#d0678d" stroke-width="1.51"/><path d="M346,935L437,1031L519,858Z" fill="#c05d87" stroke="#c05d87" stroke-width="1.51"/><path d="M710,1174L871,1192L755,943Z" fill="#b13269" stroke="#b13269" stroke-width="1.51"/><path d="M871,1192L1039,1184L865,915Z" fill="#b31f60" stroke="#b31f60" stroke-width="1.51"/><path d="M590,1100L710,1174L755,943Z" fill="#b33e72" stroke="#b33e72" stroke-width="1.51"/><path d="M241,1151L710,1174L590,1100Z" fill="#a54d71" stroke="#a54d71" stroke-width="1.51"/><path d="M1182,-224L1332,-282L986,-211Z" fill="#ed93a9" stroke="#ed93a9" stroke-width="1.51"/><path d="M1484,-203L1332,-282L1296,5Z" fill="#d7879a" stroke="#d7879a" stroke-width="1.51"/><path d="M1725,156L1407,95L1582,389Z" fill="#af5a7e" stroke="#af5a7e" stroke-width="1.51"/><path d="M1546,-4L1484,-203L1296,5Z" fill="#ca7c94" stroke="#ca7c94" stroke-width="1.51"/><path d="M1609,634L1672,730L1582,389Z" fill="#b12261" stroke="#b12261" stroke-width="1.51"/><path d="M1475,849L1672,730L1508,703Z" fill="#b10d50" stroke="#b10d50" stroke-width="1.51"/><path d="M1694,948L1672,730L1475,849Z" fill="#a40643" stroke="#a40643" stroke-width="1.51"/><path d="M1565,-90L1484,-203L1546,-4Z" fill="#c27c90" stroke="#c27c90" stroke-width="1.51"/><path d="M1672,730L1725,156L1582,389Z" fill="#ab3b6b" stroke="#ab3b6b" stroke-width="1.51"/><path d="M177,402L26,519L217,552Z" fill="#e092c3" stroke="#e092c3" stroke-width="1.51"/><path d="M222,707L88,855L266,756Z" fill="#dc799d" stroke="#dc799d" stroke-width="1.51"/><path d="M212,212L33,393L177,402Z" fill="#d7a3ce" stroke="#d7a3ce" stroke-width="1.51"/><path d="M35,101L33,393L212,212Z" fill="#d4b1d6" stroke="#d4b1d6" stroke-width="1.51"/><path d="M33,393L26,519L177,402Z" fill="#e09dca" stroke="#e09dca" stroke-width="1.51"/><path d="M-137,533L-97,711L26,519Z" fill="#ed98c1" stroke="#ed98c1" stroke-width="1.51"/><path d="M86,-38L35,101L212,212Z" fill="#d7bfdd" stroke="#d7bfdd" stroke-width="1.51"/><path d="M-7,848L88,855L-97,711Z" fill="#e488a0" stroke="#e488a0" stroke-width="1.51"/><path d="M346,935L241,1151L437,1031Z" fill="#b55f83" stroke="#b55f83" stroke-width="1.51"/><path d="M437,1031L241,1151L590,1100Z" fill="#ab577a" stroke="#ab577a" stroke-width="1.51"/><path d="M143,-200L317,-78L431,-130Z" fill="#ddc7e1" stroke="#ddc7e1" stroke-width="1.51"/><path d="M317,-78L86,-38L212,212Z" fill="#d7bddc" stroke="#d7bddc" stroke-width="1.51"/><path d="M1565,-90L1660,-151L1484,-203Z" fill="#c17e8f" stroke="#c17e8f" stroke-width="1.51"/><path d="M1484,-203L1660,-151L1332,-282Z" fill="#cb8496" stroke="#cb8496" stroke-width="1.51"/><path d="M1725,156L1660,-151L1546,-4Z" fill="#b26d81" stroke="#b26d81" stroke-width="1.51"/><path d="M1292,1066L1639,1047L1475,849Z" fill="#9e0145" stroke="#9e0145" stroke-width="1.51"/><path d="M1039,1184L1419,1198L1292,1066Z" fill="#9e063e" stroke="#9e063e" stroke-width="1.51"/><path d="M871,1192L1419,1198L1039,1184Z" fill="#a00d46" stroke="#a00d46" stroke-width="1.51"/><path d="M1639,1047L1694,948L1475,849Z" fill="#96023e" stroke="#96023e" stroke-width="1.51"/><path d="M1672,730L1694,948L1725,156Z" fill="#aa1b58" stroke="#aa1b58" stroke-width="1.51"/><path d="M559,-221L143,-200L431,-130Z" fill="#ddc4e0" stroke="#ddc4e0" stroke-width="1.51"/><path d="M86,-38L-20,-38L35,101Z" fill="#decde5" stroke="#decde5" stroke-width="1.51"/><path d="M3,-209L143,-200L559,-221Z" fill="#e1d0e6" stroke="#e1d0e6" stroke-width="1.51"/><path d="M1419,1198L1639,1047L1292,1066Z" fill="#90013b" stroke="#90013b" stroke-width="1.51"/><path d="M88,855L241,1151L346,935Z" fill="#c06b8c" stroke="#c06b8c" stroke-width="1.51"/><path d="M710,1174L241,1151L871,1192Z" fill="#a4436a" stroke="#a4436a" stroke-width="1.51"/><path d="M88,855L25,1116L241,1151Z" fill="#bc708a" stroke="#bc708a" stroke-width="1.51"/><path d="M-97,711L88,855L222,707Z" fill="#e383a4" stroke="#e383a4" stroke-width="1.51"/><path d="M-97,711L222,707L26,519Z" fill="#ea8ab6" stroke="#ea8ab6" stroke-width="1.51"/><path d="M-206,355L-137,533L33,393Z" fill="#e7aad2" stroke="#e7aad2" stroke-width="1.51"/><path d="M3,-209L-20,-38L86,-38Z" fill="#e4d9eb" stroke="#e4d9eb" stroke-width="1.51"/><path d="M-137,533L26,519L33,393Z" fill="#e7a0cb" stroke="#e7a0cb" stroke-width="1.51"/><path d="M-206,355L33,393L35,101Z" fill="#dab7d9" stroke="#dab7d9" stroke-width="1.51"/><path d="M143,-200L3,-209L86,-38Z" fill="#e4d9ea" stroke="#e4d9ea" stroke-width="1.51"/><path d="M-267,132L-206,355L35,101Z" fill="#ddc4e0" stroke="#ddc4e0" stroke-width="1.51"/><path d="M1332,-282L3,-209L559,-221Z" fill="#e7b3d7" stroke="#e7b3d7" stroke-width="1.51"/><path d="M-143,22L35,101L-20,-38Z" fill="#e0d1e6" stroke="#e0d1e6" stroke-width="1.51"/><path d="M-137,533L-188,721L-97,711Z" fill="#f095ba" stroke="#f095ba" stroke-width="1.51"/><path d="M-248,-168L-143,22L-20,-38Z" fill="#e7deed" stroke="#e7deed" stroke-width="1.51"/><path d="M-188,721L-7,848L-97,711Z" fill="#e98faa" stroke="#e98faa" stroke-width="1.51"/><path d="M-210,966L25,1116L-7,848Z" fill="#cd8296" stroke="#cd8296" stroke-width="1.51"/><path d="M-7,848L25,1116L88,855Z" fill="#ce7c95" stroke="#ce7c95" stroke-width="1.51"/><path d="M-206,355L-188,721L-137,533Z" fill="#eea1c8" stroke="#eea1c8" stroke-width="1.51"/><path d="M-206,355L-267,132L-188,721Z" fill="#e8b1d6" stroke="#e8b1d6" stroke-width="1.51"/><path d="M-143,22L-267,132L35,101Z" fill="#e0cee5" stroke="#e0cee5" stroke-width="1.51"/><path d="M-248,-168L-267,132L-143,22Z" fill="#e7dbec" stroke="#e7dbec" stroke-width="1.51"/><path d="M-188,721L-210,966L-7,848Z" fill="#e48c9f" stroke="#e48c9f" stroke-width="1.51"/><path d="M-267,132L-210,966L-188,721Z" fill="#f39cc2" stroke="#f39cc2" stroke-width="1.51"/><path d="M3,-209L-248,-168L-20,-38Z" fill="#e9e4f0" stroke="#e9e4f0" stroke-width="1.51"/><path d="M-210,966L-216,1120L25,1116Z" fill="#c27f8f" stroke="#c27f8f" stroke-width="1.51"/><path d="M25,1116L-216,1120L241,1151Z" fill="#b47384" stroke="#b47384" stroke-width="1.51"/><path d="M-267,132L-216,1120L-210,966Z" fill="#ef94af" stroke="#ef94af" stroke-width="1.51"/></svg>